<svg width="150" height="40" viewBox="0 0 150 40" fill="none" xmlns="http://www.w3.org/2000/svg">
<path d="M65.6731 12.7846L63.65 13.9837C63.272 13.3266 62.9109 12.8986 62.5689 12.6986C62.2119 12.4706 61.7519 12.3556 61.1879 12.3556C60.4958 12.3556 59.9208 12.5516 59.4638 12.9446C59.0068 13.3296 58.7787 13.8157 58.7787 14.4007C58.7787 15.2067 59.3778 15.8568 60.5768 16.3488L62.2259 17.0228C63.568 17.5648 64.549 18.2269 65.17 19.0079C65.7911 19.7889 66.1011 20.748 66.1011 21.883C66.1011 23.4031 65.5941 24.6592 64.581 25.6512C63.56 26.6503 62.2939 27.1503 60.7808 27.1503C59.3468 27.1503 58.1617 26.7253 57.2267 25.8762C56.3056 25.0272 55.7316 23.8311 55.5026 22.2901L58.0287 21.733C58.1427 22.7041 58.3427 23.3741 58.6277 23.7461C59.1418 24.4602 59.8908 24.8172 60.8758 24.8172C61.6539 24.8172 62.2999 24.5572 62.8139 24.0361C63.328 23.5151 63.585 22.8551 63.585 22.0561C63.585 21.735 63.54 21.44 63.452 21.172C63.362 20.904 63.223 20.658 63.0339 20.433C62.8449 20.208 62.6009 19.998 62.3009 19.8009C62.0009 19.6049 61.6439 19.4179 61.2299 19.2389L59.6348 18.5749C57.3727 17.6188 56.2406 16.2198 56.2406 14.3787C56.2406 13.1366 56.7157 12.0986 57.6647 11.2635C58.6137 10.4215 59.7948 10.0005 61.2079 10.0005C63.1139 10.0005 64.602 10.9285 65.6721 12.7836L65.6731 12.7846Z" fill="white"/>
<path d="M70.3563 10.3223V26.852H67.8622V10.3223H70.3563Z" fill="white"/>
<path d="M75.6315 20.1387V26.8511H73.1374V10.3213H75.9636C77.3486 10.3213 78.3937 10.4173 79.1007 10.6103C79.8147 10.8033 80.4428 11.1673 80.9848 11.7024C81.9338 12.6304 82.4089 13.8005 82.4089 15.2135C82.4089 16.7266 81.9018 17.9256 80.8888 18.8107C79.8757 19.6957 78.5087 20.1378 76.7886 20.1378H75.6325L75.6315 20.1387ZM75.6315 17.8266H76.5626C78.8537 17.8266 79.9987 16.9456 79.9987 15.1825C79.9987 13.4194 78.8177 12.6234 76.4556 12.6234H75.6315V17.8266Z" fill="white"/>
<path d="M85.7 10.3223V24.507H90.5602V26.8511H83.2059V10.3213H85.7V10.3223Z" fill="white"/>
<path d="M94.2104 10.3223V26.852H91.7163V10.3223H94.2104Z" fill="white"/>
<path d="M109.357 12.6664H103.598V16.6386H109.154V18.9827H103.598V26.8511H101.104V10.3213H109.358V12.6654L109.357 12.6664Z" fill="white"/>
<path d="M113.009 10.3223V24.507H117.87V26.8511H110.515V10.3213H113.009V10.3223Z" fill="white"/>
<path d="M128.041 12.6664H121.415V16.6386H127.849V18.9827H121.415V24.507H128.041V26.8511H118.92V10.3213H128.041V12.6654V12.6664Z" fill="white"/>
<path d="M138.611 12.6664H131.985V16.6386H138.419V18.9827H131.985V24.507H138.611V26.8511H129.49V10.3213H138.611V12.6654V12.6664Z" fill="white"/>
<path d="M146.21 12.6664V26.851H143.716V12.6664H139.916V10.3223H150V12.6664H146.21Z" fill="white"/>
<path d="M8.6574 28.5751L13.5516 23.7649L9.70345 19.9167L16.0898 13.5324L11.2385 8.6792L0 19.9147L8.6574 28.5751Z" fill="#FF7527"/>
<path d="M42.282 5.83215C34.5106 -1.94222 21.866 -1.94422 14.0917 5.82715L18.9429 10.6804C24.0381 5.58714 32.3305 5.58314 37.4288 10.6834C37.8698 11.1254 38.2708 11.5924 38.6358 12.0774C37.9428 11.8014 37.1887 11.6454 36.3977 11.6454C33.0505 11.6454 30.3374 14.3585 30.3374 17.7057C30.3374 21.0529 33.0505 23.766 36.3977 23.766C38.3268 23.766 40.0419 22.8609 41.1519 21.4559C40.8209 24.275 39.5789 27.0071 37.4208 29.1642C32.3255 34.2575 24.0381 34.2565 18.9449 29.1612L16.2618 26.4781L11.4085 31.3293L14.0917 34.0125C21.858 41.7818 34.4976 41.7888 42.272 34.0175C50.0463 26.2461 50.0483 13.6015 42.282 5.83215Z" fill="white"/>
</svg>
